<svg xmlns="http://www.w3.org/2000/svg" version="1.1" xmlns:xlink="http://www.w3.org/1999/xlink" xmlns:svgjs="http://svgjs.dev/svgjs" width="1440" height="560" preserveAspectRatio="none" viewBox="0 0 1440 560">
    <g mask="url(&quot;#SvgjsMask2551&quot;)" fill="none">
        <rect width="1440" height="560" x="0" y="0" fill="url(&quot;#SvgjsLinearGradient2552&quot;)"></rect>
        <path d="M595.759,388.64C616.211,389.528,637.891,384.155,648.726,366.787C660.096,348.562,658.431,324.803,646.886,306.688C636.121,289.797,615.777,284.36,595.759,283.68C574.094,282.944,549.087,284.23,538.24,302.998C527.388,321.775,538.107,344.507,550.198,362.51C560.66,378.087,577.013,387.826,595.759,388.64" fill="rgba(114, 123, 175, 0.4)" class="triangle-float2"></path>
        <path d="M572.25 191.96 a184.49 184.49 0 1 0 368.98 0 a184.49 184.49 0 1 0 -368.98 0z" fill="rgba(114, 123, 175, 0.4)" class="triangle-float2"></path>
        <path d="M424.974,113.491C452.097,113.698,476.815,99.016,490.899,75.835C505.577,51.676,510.45,21.058,495.829,-3.135C481.602,-26.676,452.441,-34.706,424.974,-33.248C400.151,-31.93,378.744,-17.618,366.05,3.754C353.045,25.65,348.724,52.403,360.772,74.84C373.437,98.428,398.202,113.286,424.974,113.491" fill="rgba(114, 123, 175, 0.4)" class="triangle-float3"></path>
        <path d="M48.39 541.93 a148.59 148.59 0 1 0 297.18 0 a148.59 148.59 0 1 0 -297.18 0z" fill="rgba(114, 123, 175, 0.4)" class="triangle-float2"></path>
        <path d="M439.23 263.11 a184.14 184.14 0 1 0 368.28 0 a184.14 184.14 0 1 0 -368.28 0z" fill="rgba(114, 123, 175, 0.4)" class="triangle-float3"></path>
        <path d="M1012.049,518.381C1031.903,519.266,1049.811,506.127,1058.96,488.484C1067.455,472.102,1064.319,452.497,1054.223,437.051C1045.071,423.049,1028.764,417.366,1012.049,416.711C993.789,415.996,973.045,417.781,963.736,433.506C954.32,449.412,962.717,468.538,971.861,484.602C981.14,500.902,993.312,517.546,1012.049,518.381" fill="rgba(114, 123, 175, 0.4)" class="triangle-float1"></path>
        <path d="M940.849,307.629C962.469,305.717,979.254,290.951,990.211,272.216C1001.301,253.253,1008.071,230.271,997.282,211.135C986.345,191.736,963.098,183.686,940.849,184.66C920.298,185.56,904.018,198.771,892.371,215.728C878.338,236.159,862.065,260.603,873.629,282.526C885.59,305.2,915.314,309.887,940.849,307.629" fill="rgba(114, 123, 175, 0.4)" class="triangle-float1"></path>
        <path d="M423.855,284.739C474.119,284.494,518.921,254.503,543.447,210.628C567.376,167.82,567.933,114.996,542.01,73.365C517.414,33.866,470.326,16.214,423.855,18.573C381.42,20.727,347.431,48.43,324.797,84.39C300.172,123.513,281.741,170.363,302.23,211.802C324.686,257.221,373.189,284.986,423.855,284.739" fill="rgba(114, 123, 175, 0.4)" class="triangle-float3"></path>
        <path d="M554.795,188.815C589.318,190.195,625.964,178.401,642.501,148.065C658.543,118.636,645.079,83.988,627.491,55.457C610.985,28.681,586.25,5.957,554.795,5.79C523.096,5.622,496.296,27.053,480.754,54.68C465.539,81.726,463.449,114.341,478.445,141.509C493.952,169.602,522.732,187.534,554.795,188.815" fill="rgba(114, 123, 175, 0.4)" class="triangle-float3"></path>
        <path d="M79.593,227.876C111.875,228.109,134.43,199.719,150.292,171.602C165.801,144.111,177.338,110.784,160.825,83.884C144.799,57.777,110.16,54.41,79.593,56.43C53.055,58.183,28.793,70.751,15.043,93.517C0.782,117.127,-1.308,145.733,10.637,170.596C24.506,199.463,47.568,227.645,79.593,227.876" fill="rgba(114, 123, 175, 0.4)" class="triangle-float1"></path>
    </g>
    <defs>
        <mask id="SvgjsMask2551">
            <rect width="1440" height="560" fill="#ffffff"></rect>
        </mask>
        <linearGradient x1="15.28%" y1="-39.29%" x2="84.72%" y2="139.29%" gradientUnits="userSpaceOnUse" id="SvgjsLinearGradient2552">
            <stop stop-color="rgba(156, 235, 230, 1)" offset="0"></stop>
            <stop stop-color="rgba(182, 116, 169, 1)" offset="1"></stop>
        </linearGradient>
        <style>
            @keyframes float1 {
                    0%{transform: translate(0, 0)}
                    50%{transform: translate(-10px, 0)}
                    100%{transform: translate(0, 0)}
                }

                .triangle-float1 {
                    animation: float1 5s infinite;
                }

                @keyframes float2 {
                    0%{transform: translate(0, 0)}
                    50%{transform: translate(-5px, -5px)}
                    100%{transform: translate(0, 0)}
                }

                .triangle-float2 {
                    animation: float2 4s infinite;
                }

                @keyframes float3 {
                    0%{transform: translate(0, 0)}
                    50%{transform: translate(0, -10px)}
                    100%{transform: translate(0, 0)}
                }

                .triangle-float3 {
                    animation: float3 6s infinite;
                }
        </style>
    </defs>
</svg>